<svg width="54" height="52" viewBox="0 0 54 52" fill="none" xmlns="http://www.w3.org/2000/svg">
<path d="M32 50H22C12.5725 50 7.8575 50 4.93 47.07C2 44.1425 2 39.4275 2 30V25C2 15.5725 2 10.8575 4.93 7.93C7.8575 5 12.5725 5 22 5H32C41.4275 5 46.1425 5 49.07 7.93C52 10.8575 52 15.5725 52 25V30C52 39.4275 52 44.1425 49.07 47.07C47.4375 48.705 45.25 49.4275 42 49.745M14.5 5V1.25M39.5 5V1.25M50.75 17.5H23.875M2 17.5H11.6875" stroke="#1A1A1A" stroke-width="2.5" stroke-linecap="round"/>
<path d="M42 37.5C42 38.163 41.7366 38.7989 41.2678 39.2678C40.7989 39.7366 40.163 40 39.5 40C38.837 40 38.2011 39.7366 37.7322 39.2678C37.2634 38.7989 37 38.163 37 37.5C37 36.837 37.2634 36.2011 37.7322 35.7322C38.2011 35.2634 38.837 35 39.5 35C40.163 35 40.7989 35.2634 41.2678 35.7322C41.7366 36.2011 42 36.837 42 37.5ZM42 27.5C42 28.163 41.7366 28.7989 41.2678 29.2678C40.7989 29.7366 40.163 30 39.5 30C38.837 30 38.2011 29.7366 37.7322 29.2678C37.2634 28.7989 37 28.163 37 27.5C37 26.837 37.2634 26.2011 37.7322 25.7322C38.2011 25.2634 38.837 25 39.5 25C40.163 25 40.7989 25.2634 41.2678 25.7322C41.7366 26.2011 42 26.837 42 27.5ZM29.5 37.5C29.5 38.163 29.2366 38.7989 28.7678 39.2678C28.2989 39.7366 27.663 40 27 40C26.337 40 25.7011 39.7366 25.2322 39.2678C24.7634 38.7989 24.5 38.163 24.5 37.5C24.5 36.837 24.7634 36.2011 25.2322 35.7322C25.7011 35.2634 26.337 35 27 35C27.663 35 28.2989 35.2634 28.7678 35.7322C29.2366 36.2011 29.5 36.837 29.5 37.5ZM29.5 27.5C29.5 28.163 29.2366 28.7989 28.7678 29.2678C28.2989 29.7366 27.663 30 27 30C26.337 30 25.7011 29.7366 25.2322 29.2678C24.7634 28.7989 24.5 28.163 24.5 27.5C24.5 26.837 24.7634 26.2011 25.2322 25.7322C25.7011 25.2634 26.337 25 27 25C27.663 25 28.2989 25.2634 28.7678 25.7322C29.2366 26.2011 29.5 26.837 29.5 27.5ZM17 37.5C17 38.163 16.7366 38.7989 16.2678 39.2678C15.7989 39.7366 15.163 40 14.5 40C13.837 40 13.2011 39.7366 12.7322 39.2678C12.2634 38.7989 12 38.163 12 37.5C12 36.837 12.2634 36.2011 12.7322 35.7322C13.2011 35.2634 13.837 35 14.5 35C15.163 35 15.7989 35.2634 16.2678 35.7322C16.7366 36.2011 17 36.837 17 37.5ZM17 27.5C17 28.163 16.7366 28.7989 16.2678 29.2678C15.7989 29.7366 15.163 30 14.5 30C13.837 30 13.2011 29.7366 12.7322 29.2678C12.2634 28.7989 12 28.163 12 27.5C12 26.837 12.2634 26.2011 12.7322 25.7322C13.2011 25.2634 13.837 25 14.5 25C15.163 25 15.7989 25.2634 16.2678 25.7322C16.7366 26.2011 17 26.837 17 27.5Z" fill="#00BDBD"/>
</svg>
