<svg width="54" height="45" viewBox="0 0 54 45" fill="none" xmlns="http://www.w3.org/2000/svg">
<path d="M52 24.5V22C52 12.5725 52 7.8575 49.07 4.93C46.1425 2 41.4275 2 32 2H22C12.5725 2 7.8575 2 4.93 4.93C2 7.8575 2 12.5725 2 22C2 31.4275 2 36.1425 4.93 39.07C7.8575 42 12.5725 42 22 42H29.5M22 32H12M2 17H52" stroke="#1A1A1A" stroke-width="2.5" stroke-linecap="round"/>
<path d="M42 42C46.1421 42 49.5 38.6421 49.5 34.5C49.5 30.3579 46.1421 27 42 27C37.8579 27 34.5 30.3579 34.5 34.5C34.5 38.6421 37.8579 42 42 42Z" stroke="#00BDBD" stroke-width="2.5"/>
<path d="M48.25 40.75L50.75 43.25" stroke="#00BDBD" stroke-width="2.5" stroke-linecap="round"/>
</svg>
