<svg width="41" height="54" viewBox="0 0 41 54" fill="none" xmlns="http://www.w3.org/2000/svg">
<path d="M20.9999 39.5V34.5M20.9999 34.5C21.8776 34.5 22.7397 34.2688 23.4998 33.83C24.2599 33.3912 24.8911 32.76 25.3299 32M20.9999 34.5C20.1223 34.5 19.2601 34.2688 18.5 33.83C17.74 33.3912 17.1088 32.76 16.6699 32" stroke="#00BDBD" stroke-width="2.5" stroke-linecap="round"/>
<path d="M27.2499 45.75H14.7499M27.2499 45.75C27.2499 43.9675 27.2499 43.075 27.3449 42.4825C27.6524 40.575 27.7049 40.4525 28.9224 38.9525C29.2999 38.4875 30.6999 37.2325 33.5024 34.7225C35.4703 32.9658 37.0442 30.8127 38.121 28.4046C39.1977 25.9965 39.7528 23.3878 39.7499 20.75C39.753 18.621 39.3919 16.5072 38.6824 14.5M27.2499 45.75C27.2499 48.0875 27.2499 49.255 26.7474 50.125C26.4183 50.695 25.945 51.1684 25.3749 51.4975C24.5049 52 23.3374 52 20.9999 52C18.6624 52 17.4949 52 16.6249 51.4975C16.0549 51.1684 15.5816 50.695 15.2524 50.125C14.7499 49.255 14.7499 48.0875 14.7499 45.75M14.7499 45.75C14.7499 43.9675 14.7499 43.075 14.6549 42.4825C14.3474 40.575 14.2949 40.4525 13.0774 38.9525C12.6999 38.4875 11.2974 37.2325 8.49745 34.7225C5.03853 31.6314 2.84827 27.3678 2.34998 22.7558C1.8517 18.1438 3.08077 13.5107 5.79965 9.75219C8.51853 5.99364 12.5342 3.37639 17.0705 2.40631C21.6068 1.43623 26.3416 2.18218 30.3599 4.49999" stroke="#1A1A1A" stroke-width="2.5" stroke-linecap="round"/>
</svg>
