<svg width="54" height="54" viewBox="0 0 54 54" fill="none" xmlns="http://www.w3.org/2000/svg">
<path d="M4.93 49.07C7.8575 52 12.5725 52 22 52H32C41.4275 52 46.1425 52 49.07 49.07C52 46.1425 52 41.4275 52 32C52 29.075 52 26.605 51.9125 24.5M49.07 14.93C46.1425 12 41.4275 12 32 12H22C12.5725 12 7.8575 12 4.93 14.93C2 17.8575 2 22.5725 2 32C2 34.925 2 37.395 2.0875 39.5M27 2C31.715 2 34.07 2 35.535 3.465C37 4.93 37 7.285 37 12M18.465 3.465C17 4.93 17 7.285 17 12" stroke="#1A1A1A" stroke-width="2.5" stroke-linecap="round"/>
<path d="M27 40.3325C29.7625 40.3325 32 38.4675 32 36.1675C32 33.8675 29.7625 32 27 32C24.2375 32 22 30.135 22 27.8325C22 25.5325 24.2375 23.6675 27 23.6675M27 40.3325C24.2375 40.3325 22 38.4675 22 36.1675M27 40.3325V42M27 23.6675V22M27 23.6675C29.7625 23.6675 32 25.5325 32 27.8325" stroke="#00BDBD" stroke-width="2.5" stroke-linecap="round"/>
</svg>
