<svg width="48" height="54" viewBox="0 0 48 54" fill="none" xmlns="http://www.w3.org/2000/svg">
<path d="M21.5 22C27.0228 22 31.5 17.5228 31.5 12C31.5 6.47715 27.0228 2 21.5 2C15.9772 2 11.5 6.47715 11.5 12C11.5 17.5228 15.9772 22 21.5 22Z" stroke="#1A1A1A" stroke-width="2.5"/>
<path d="M36.5 22.75L39.8325 25.75L46.5 18.25" stroke="#00BDBD" stroke-width="2.5" stroke-linecap="round" stroke-linejoin="round"/>
<path d="M41.4925 42C41.5 41.59 41.5 41.1725 41.5 40.75C41.5 34.5375 32.545 29.5 21.5 29.5C10.455 29.5 1.5 34.5375 1.5 40.75C1.5 46.9625 1.5 52 21.5 52C27.0775 52 31.1 51.6075 34 50.9075" stroke="#1A1A1A" stroke-width="2.5" stroke-linecap="round"/>
</svg>
